<svg xmlns="http://www.w3.org/2000/svg" viewBox="0 0 134 34">
  <g fill="none" fill-rule="evenodd">
    <rect width="133.5" height="33.5" x=".25" y=".25" fill="#FFF" stroke="#9AA0A6" stroke-width=".5" rx="8"/>
    <g fill-rule="nonzero" transform="translate(6 6)">
      <path fill="#FAB908" d="M9.63 7v8h2.75V7z"/>
      <circle cx="1.38" cy="10.25" r="1.38" fill="#0066D9"/>
      <circle cx="1.38" cy="11.75" r="1.38" fill="#0066D9"/>
      <path fill="#0066D9" d="M0 10.25h2.75v1.5H0z"/>
      <circle cx="20.63" cy="11.75" r="1.38" fill="#4285F4"/>
      <circle cx="20.63" cy="10.25" r="1.38" fill="#4285F4"/>
      <path fill="#4285F4" d="M22 11.75h-2.75v-1.5H22z"/>
      <circle cx="6.13" cy="14.75" r="1.38" fill="#EA4335"/>
      <circle cx="6.13" cy="16.25" r="1.38" fill="#EA4335"/>
      <path fill="#EA4335" d="M4.75 14.75H7.5v1.5H4.75z"/>
      <circle cx="6.13" cy="5.75" r="1.38" fill="#EA4335"/>
      <circle cx="6.13" cy="10.63" r="1.38" fill="#EA4335"/>
      <path fill="#EA4335" d="M4.75 5.75H7.5v4.91H4.75z"/>
      <circle cx="15.88" cy="7.25" r="1.38" fill="#34A853"/>
      <circle cx="15.88" cy="5.75" r="1.38" fill="#34A853"/>
      <path fill="#34A853" d="M17.25 7.25H14.5v-1.5h2.75z"/>
      <circle cx="11" cy="2.88" r="1.38" fill="#FAB908"/>
      <circle cx="11" cy="1.38" r="1.38" fill="#FAB908"/>
      <path fill="#FAB908" d="M12.37 2.87H9.62v-1.5h2.75z"/>
      <circle cx="11" cy="20.63" r="1.38" fill="#FAB908"/>
      <circle cx="11" cy="19.13" r="1.38" fill="#FAB908"/>
      <path fill="#FAB908" d="M12.37 20.62H9.62v-1.5h2.75z"/>
      <circle cx="15.88" cy="16.25" r="1.38" fill="#34A853"/>
      <circle cx="15.88" cy="11.38" r="1.38" fill="#34A853"/>
      <path fill="#34A853" d="M17.25 16.25H14.5v-4.88h2.75z"/>
      <circle cx="11" cy="7" r="1.38" fill="#FAB908"/>
      <circle cx="11" cy="15" r="1.38" fill="#FAB908"/>
    </g>
    <path d="M35 16h91v14H35z"/>
    <path fill="#3C4043" d="M79.92 26.5h-1.15v-8.91h3.04c.75 0 1.4.25 1.96.75.55.5.83 1.14.83 1.9s-.28 1.4-.83 1.9c-.55.5-1.2.75-1.96.75h-1.9v3.61zm0-4.7h1.91c.48 0 .87-.17 1.16-.49.29-.32.44-.68.44-1.07s-.15-.75-.44-1.07a1.48 1.48 0 0 0-1.16-.49h-1.91v3.12zm5.62-.66a2.97 2.97 0 0 1 2.26-.94c.9 0 1.66.31 2.25.93.59.62.88 1.4.88 2.32 0 .93-.3 1.7-.88 2.32-.59.62-1.34.93-2.25.93-.92 0-1.67-.31-2.26-.93a3.23 3.23 0 0 1-.88-2.32c0-.93.3-1.7.88-2.31zm.85 3.92c.4.4.87.6 1.4.6.55 0 1.01-.2 1.4-.61.4-.4.6-.94.6-1.6 0-.66-.2-1.2-.6-1.6-.39-.4-.85-.6-1.4-.6-.53 0-1 .2-1.4.6-.39.4-.58.94-.58 1.6 0 .66.2 1.2.58 1.6zm8 1.64c-.8 0-1.48-.31-2.05-.93a3.29 3.29 0 0 1-.86-2.32c0-.92.29-1.7.86-2.31a2.68 2.68 0 0 1 3.3-.64c.36.2.64.45.82.75h.05l-.05-.85V17.6h1.15v8.91h-1.1v-.85h-.05c-.18.3-.46.55-.83.75-.37.2-.78.3-1.25.3zm.18-1.05c.54 0 1-.2 1.38-.6.37-.4.56-.93.56-1.6s-.19-1.2-.56-1.6c-.38-.4-.84-.6-1.38-.6-.53 0-.99.2-1.37.6-.38.4-.57.94-.57 1.6 0 .66.19 1.2.57 1.6.38.4.84.6 1.37.6zm7.01 1.05c-.91 0-1.66-.31-2.25-.93a3.23 3.23 0 0 1-.89-2.32c0-.93.3-1.7.89-2.32a2.98 2.98 0 0 1 2.25-.93 2.77 2.77 0 0 1 2.68 1.76l-1.05.43a1.7 1.7 0 0 0-1.7-1.14c-.51 0-.96.2-1.34.62-.39.42-.58.94-.58 1.58 0 .64.2 1.17.58 1.58.38.42.83.62 1.34.62.85 0 1.44-.38 1.76-1.14l1.02.43a2.82 2.82 0 0 1-2.71 1.75zm5.43 0a2.4 2.4 0 0 1-1.62-.56 1.85 1.85 0 0 1-.66-1.48c0-.67.26-1.19.77-1.56a3.13 3.13 0 0 1 1.9-.57c.68 0 1.23.12 1.66.37v-.17c0-.45-.15-.8-.46-1.08-.3-.27-.68-.4-1.13-.4-.33 0-.63.08-.9.23-.27.16-.46.38-.56.65l-1.04-.45c.14-.36.42-.7.83-1.01.42-.31.96-.47 1.64-.47.78 0 1.43.23 1.95.69.51.45.77 1.1.77 1.93v3.68h-1.1v-.85h-.05a2.24 2.24 0 0 1-2 1.05zm.19-1.05c.47 0 .9-.17 1.28-.53.39-.35.58-.76.58-1.25-.32-.26-.8-.4-1.45-.4-.56 0-.98.13-1.26.37s-.42.52-.42.84c0 .3.12.54.38.71.26.18.55.26.89.26zm6.3 1.05a2.74 2.74 0 0 1-2.65-1.74l1.02-.43c.32.77.87 1.15 1.65 1.15.36 0 .65-.08.88-.24a.72.72 0 0 0 .34-.62c0-.4-.28-.67-.83-.8l-1.24-.3c-.39-.1-.75-.3-1.1-.57a1.36 1.36 0 0 1-.53-1.13c0-.54.24-.98.72-1.31.48-.34 1.04-.5 1.7-.5.54 0 1.02.12 1.44.36.43.24.73.6.91 1.05l-1 .41c-.22-.54-.68-.8-1.39-.8-.34 0-.62.06-.86.2-.23.15-.35.34-.35.58 0 .35.27.58.81.7l1.21.3c.57.13 1 .35 1.27.68a1.7 1.7 0 0 1-.26 2.46c-.45.37-1.03.55-1.73.55zm5.84-.1c-.64 0-1.13-.17-1.47-.51-.33-.34-.5-.82-.5-1.44v-3.2h-1.07V20.4h1.07v-1.86h1.14v1.86h1.5v1.05h-1.5v3.1c0 .67.28 1 .83 1 .2 0 .38-.03.52-.1l.4.99c-.25.1-.56.16-.92.16zm4 .1a2.74 2.74 0 0 1-2.66-1.74l1.02-.43c.33.77.88 1.15 1.66 1.15.36 0 .65-.08.88-.24a.72.72 0 0 0 .34-.62c0-.4-.28-.67-.84-.8l-1.23-.3c-.39-.1-.76-.3-1.1-.57a1.36 1.36 0 0 1-.53-1.13c0-.54.24-.98.72-1.31.48-.34 1.04-.5 1.7-.5.54 0 1.02.12 1.44.36.42.24.73.6.9 1.05l-.99.41c-.22-.54-.69-.8-1.39-.8-.34 0-.63.06-.86.2-.23.15-.35.34-.35.58 0 .35.27.58.81.7l1.2.3c.58.13 1 .35 1.28.68.27.32.4.69.4 1.1 0 .54-.22 1-.66 1.36-.45.37-1.03.55-1.73.55z"/>
    <path fill="#3C4043" fill-rule="nonzero" d="M35.3 21.59a5.17 5.17 0 0 1 8.67-3.7l-.99.99a3.66 3.66 0 0 0-6.16 2.7c0 2.05 1.6 3.7 3.65 3.7 1.34 0 2.1-.53 2.58-1.02.4-.4.66-.97.76-1.75h-3.34v-1.39h4.7c.05.26.08.55.08.88 0 1.05-.28 2.34-1.2 3.26a4.7 4.7 0 0 1-3.58 1.42 5.17 5.17 0 0 1-5.18-5.09zm13.69-1.4c1.82 0 3.3 1.37 3.3 3.28 0 1.9-1.48 3.28-3.3 3.28a3.24 3.24 0 0 1-3.3-3.28c0-1.9 1.48-3.29 3.3-3.29zm0 5.26c1 0 1.86-.82 1.86-2 0-1.18-.87-1.99-1.86-1.99-1 0-1.86.81-1.86 2 0 1.17.87 1.99 1.86 1.99zm7.2-5.27c1.81 0 3.3 1.38 3.3 3.29 0 1.9-1.49 3.28-3.3 3.28a3.24 3.24 0 0 1-3.3-3.28c0-1.9 1.48-3.29 3.3-3.29zm0 5.27c.99 0 1.85-.82 1.85-2 0-1.18-.85-1.99-1.86-1.99-1 0-1.85.81-1.85 2 0 1.17.86 1.99 1.85 1.99zM65 20.29h1.38v5.9c0 2.43-1.43 3.42-3.12 3.42a3.13 3.13 0 0 1-2.91-1.94l1.25-.53c.22.54.77 1.17 1.65 1.17 1.08 0 1.75-.67 1.75-1.93v-.47h-.05c-.32.4-.94.75-1.73.75a3.26 3.26 0 0 1-3.15-3.28c0-1.86 1.51-3.3 3.15-3.3.8 0 1.41.35 1.73.74h.05v-.53zm-1.65 5.07c.98 0 1.76-.82 1.75-1.98 0-1.16-.77-2-1.75-2-1 0-1.83.84-1.83 2 0 1.15.84 1.98 1.83 1.98zm4.02 1.17v-9.65h1.43v9.65h-1.44zm5.4-1.08a1.9 1.9 0 0 0 1.61-.9l1.12.74a3.29 3.29 0 0 1-2.74 1.46 3.22 3.22 0 0 1-3.26-3.28c0-1.96 1.41-3.29 3.1-3.29 1.7 0 2.54 1.35 2.81 2.1l.15.36-4.4 1.82c.35.65.86.99 1.6.99zm-.12-4a1.8 1.8 0 0 0-1.72 1.91l2.94-1.22c-.16-.41-.64-.7-1.22-.7z"/>
    <path fill="#5F6368" d="M36.6 12.31h3.02V13h-3.88V6.6h.85v5.71zm4.97.69h-.82V8.25h.82V13zm-.88-6.02c0-.13.04-.24.12-.33.08-.1.2-.14.36-.14.15 0 .27.05.36.14.08.1.12.2.12.33 0 .14-.04.25-.12.33-.09.1-.2.14-.36.14-.16 0-.28-.05-.36-.14a.47.47 0 0 1-.12-.33zm5.17 4.76a.6.6 0 0 0-.25-.51 2.39 2.39 0 0 0-.86-.32 4.1 4.1 0 0 1-.98-.31 1.4 1.4 0 0 1-.54-.44 1.05 1.05 0 0 1-.17-.61c0-.39.16-.72.5-.99.32-.27.74-.4 1.25-.4.54 0 .98.14 1.32.41.33.28.5.64.5 1.07h-.82c0-.22-.1-.41-.28-.57a1.06 1.06 0 0 0-.72-.24c-.3 0-.52.06-.69.19a.6.6 0 0 0-.25.5c0 .2.08.35.23.45.16.1.44.2.84.28.41.1.74.2 1 .33.24.12.43.28.55.45.12.18.18.4.18.65 0 .43-.17.77-.5 1.02-.35.26-.79.39-1.33.39a2.4 2.4 0 0 1-1.01-.2c-.3-.14-.52-.33-.69-.57-.16-.24-.25-.5-.25-.78h.82c.01.27.12.49.32.64.2.16.48.24.81.24.3 0 .56-.06.74-.18.19-.13.28-.3.28-.5zm3.2-4.65v1.16h.89v.62h-.89v2.95c0 .2.04.34.12.43.08.1.21.14.4.14.1 0 .23-.01.39-.05V13c-.21.06-.42.09-.62.09-.37 0-.64-.11-.83-.33a1.42 1.42 0 0 1-.27-.94V8.87h-.87v-.62h.87V7.09h.81zm4.04 6c-.65 0-1.17-.21-1.58-.64-.4-.42-.6-.99-.6-1.7v-.15c0-.47.09-.89.27-1.26.18-.37.43-.66.75-.87.33-.2.68-.31 1.05-.31.62 0 1.1.2 1.45.6.34.42.51 1 .51 1.76v.34h-3.22c.01.46.15.84.41 1.13.26.29.6.43 1 .43.29 0 .53-.05.73-.17.2-.12.37-.27.52-.47l.5.39a2 2 0 0 1-1.8.92zM53 8.83c-.33 0-.6.11-.83.35-.22.24-.36.58-.41 1h2.38v-.05a1.55 1.55 0 0 0-.34-.96c-.2-.23-.47-.34-.8-.34zm3.88-.58l.03.6c.36-.46.84-.7 1.42-.7 1.01 0 1.52.57 1.53 1.7V13h-.82V9.85c0-.34-.08-.6-.23-.76-.16-.16-.4-.24-.72-.24-.26 0-.5.07-.7.2-.2.15-.35.33-.46.56V13h-.81V8.25h.76zm6.66 2.33c0-.47.1-.89.28-1.26a2.05 2.05 0 0 1 1.88-1.16 2 2 0 0 1 1.57.67c.4.45.6 1.04.6 1.79v.06c0 .46-.09.87-.26 1.24a2.02 2.02 0 0 1-1.9 1.17 2 2 0 0 1-1.57-.67c-.4-.45-.6-1.05-.6-1.78v-.06zm.82.1c0 .52.12.95.37 1.27.24.31.57.47.98.47.41 0 .74-.16.99-.48.24-.33.36-.78.36-1.36 0-.52-.12-.95-.37-1.27a1.18 1.18 0 0 0-.99-.48c-.4 0-.72.15-.97.47a2.2 2.2 0 0 0-.37 1.38zm5.53-2.43l.02.6c.37-.46.84-.7 1.43-.7 1 0 1.5.57 1.52 1.7V13h-.82V9.85c0-.34-.08-.6-.23-.76-.15-.16-.4-.24-.72-.24-.26 0-.5.07-.7.2-.2.15-.35.33-.46.56V13h-.81V8.25h.77z"/>
  </g>
</svg>
